<svg xmlns="http://www.w3.org/2000/svg" viewBox="0 0 2048 2048" width="2048" height="2048">
  <rect width="100%" height="100%" fill="#0B1026" />
  <g transform="translate(0 256)">
    <g fill="none" stroke="#F2EFE6" stroke-width="2" stroke-linecap="round" opacity="0.32"><path d="M64 138 L355.2 250.5 L440.5 329.1 L448 374" /></g>
    <g fill="#E8C87A"><circle cx="64" cy="138" r="4.9" /><circle cx="355.2" cy="250.5" r="7.2" /><circle cx="440.5" cy="329.1" r="6.3" /><circle cx="448" cy="374" r="4.6" /></g>
    <text x="256" y="484" fill="#8E96B4" font-size="20" text-anchor="middle" font-family="sans-serif">Aries · 4</text>
    <rect x="0.5" y="0.5" width="511" height="511" fill="none" stroke="#2B3566" />
  </g>
  <g transform="translate(512 256)">
    <g fill="none" stroke="#F2EFE6" stroke-width="2" stroke-linecap="round" opacity="0.32"><path d="M64 176.7 L242.4 232.1 L263.4 239.7 L289.1 242.6 L280 219.7 L263.6 200.2 L96.8 87.6" /><path d="M289.1 242.6 L344.3 280.1 L441.2 313 L337.2 357.7" /><path d="M441.2 313 L448 321.4 L413.1 424.4" /></g>
    <g fill="#E8C87A"><circle cx="64" cy="176.7" r="5.8" /><circle cx="242.4" cy="232.1" r="8.8" /><circle cx="263.4" cy="239.7" r="5.2" /><circle cx="289.1" cy="242.6" r="4.9" /><circle cx="280" cy="219.7" r="4.7" /><circle cx="263.6" cy="200.2" r="5.1" /><circle cx="96.8" cy="87.6" r="7.7" /><circle cx="344.3" cy="280.1" r="5.2" /><circle cx="441.2" cy="313" r="4.8" /><circle cx="337.2" cy="357.7" r="4.5" /><circle cx="448" cy="321.4" r="4.9" /><circle cx="413.1" cy="424.4" r="4" /></g>
    <text x="256" y="484" fill="#8E96B4" font-size="20" text-anchor="middle" font-family="sans-serif">Tauro · 12</text>
    <rect x="0.5" y="0.5" width="511" height="511" fill="none" stroke="#2B3566" />
  </g>
  <g transform="translate(1024 256)">
    <g fill="none" stroke="#F2EFE6" stroke-width="2" stroke-linecap="round" opacity="0.32"><path d="M448 253.9 L413.7 253.8 L324.6 205.7 L209.1 111.7 L109.5 81.6 L64 152.5 L103.9 173.3 L171 263.5 L239 289.5 L351 366.1 L318.9 430.4" /><path d="M171 263.5 L179.6 363.5" /></g>
    <g fill="#E8C87A"><circle cx="448" cy="253.9" r="5.4" /><circle cx="413.7" cy="253.8" r="6" /><circle cx="324.6" cy="205.7" r="5.7" /><circle cx="209.1" cy="111.7" r="3.8" /><circle cx="109.5" cy="81.6" r="7.8" /><circle cx="64" cy="152.5" r="8.4" /><circle cx="103.9" cy="173.3" r="4.3" /><circle cx="171" cy="263.5" r="5.1" /><circle cx="239" cy="289.5" r="4.4" /><circle cx="351" cy="366.1" r="7.3" /><circle cx="318.9" cy="430.4" r="5.3" /><circle cx="179.6" cy="363.5" r="5" /></g>
    <text x="256" y="484" fill="#8E96B4" font-size="20" text-anchor="middle" font-family="sans-serif">Géminis · 12</text>
    <rect x="0.5" y="0.5" width="511" height="511" fill="none" stroke="#2B3566" />
  </g>
  <g transform="translate(1536 256)">
    <g fill="none" stroke="#F2EFE6" stroke-width="2" stroke-linecap="round" opacity="0.32"><path d="M158.7 395.6 L222.7 272.1 L229.2 207 L213.3 64" /><path d="M222.7 272.1 L353.3 448" /></g>
    <g fill="#E8C87A"><circle cx="158.7" cy="395.6" r="4" /><circle cx="222.7" cy="272.1" r="4.5" /><circle cx="229.2" cy="207" r="3.5" /><circle cx="213.3" cy="64" r="4.4" /><circle cx="353.3" cy="448" r="5.1" /></g>
    <text x="256" y="484" fill="#8E96B4" font-size="20" text-anchor="middle" font-family="sans-serif">Cáncer · 5</text>
    <rect x="0.5" y="0.5" width="511" height="511" fill="none" stroke="#2B3566" />
  </g>
  <g transform="translate(0 768)">
    <g fill="none" stroke="#F2EFE6" stroke-width="2" stroke-linecap="round" opacity="0.32"><path d="M377.8 348.6 L381.1 285.3 L341.7 244.7 L172.9 235.7 L64 314.2 L172.5 302.9 L377.8 348.6" /><path d="M341.7 244.7 L351.9 197.6 L426.5 163.4 L448 192.9" /></g>
    <g fill="#E8C87A"><circle cx="377.8" cy="348.6" r="8.1" /><circle cx="381.1" cy="285.3" r="5.1" /><circle cx="341.7" cy="244.7" r="7.2" /><circle cx="172.9" cy="235.7" r="6.4" /><circle cx="64" cy="314.2" r="7" /><circle cx="172.5" cy="302.9" r="5.3" /><circle cx="351.9" cy="197.6" r="5.2" /><circle cx="426.5" cy="163.4" r="4.6" /><circle cx="448" cy="192.9" r="5.8" /></g>
    <text x="256" y="484" fill="#8E96B4" font-size="20" text-anchor="middle" font-family="sans-serif">Leo · 9</text>
    <rect x="0.5" y="0.5" width="511" height="511" fill="none" stroke="#2B3566" />
  </g>
  <g transform="translate(512 768)">
    <g fill="none" stroke="#F2EFE6" stroke-width="2" stroke-linecap="round" opacity="0.32"><path d="M448 199.5 L437.7 240.1 L375.5 260.8 L329.2 267.5 L269 302.3 L236.5 350.2 L128.4 306.2 L70.8 303.3" /><path d="M285.5 161.8 L299.5 226.2 L329.2 267.5" /><path d="M269 302.3 L216.3 260.2 L158.9 242 L64 239" /></g>
    <g fill="#E8C87A"><circle cx="448" cy="199.5" r="4.3" /><circle cx="437.7" cy="240.1" r="5" /><circle cx="375.5" cy="260.8" r="4.6" /><circle cx="329.2" cy="267.5" r="6.2" /><circle cx="269" cy="302.3" r="3.9" /><circle cx="236.5" cy="350.2" r="8.6" /><circle cx="128.4" cy="306.2" r="4.3" /><circle cx="70.8" cy="303.3" r="4.6" /><circle cx="285.5" cy="161.8" r="6" /><circle cx="299.5" cy="226.2" r="5.3" /><circle cx="216.3" cy="260.2" r="5.3" /><circle cx="158.9" cy="242" r="4.1" /><circle cx="64" cy="239" r="4.8" /></g>
    <text x="256" y="484" fill="#8E96B4" font-size="20" text-anchor="middle" font-family="sans-serif">Virgo · 13</text>
    <rect x="0.5" y="0.5" width="511" height="511" fill="none" stroke="#2B3566" />
  </g>
  <g transform="translate(1024 768)">
    <g fill="none" stroke="#F2EFE6" stroke-width="2" stroke-linecap="round" opacity="0.32"><path d="M303.4 363.4 L361.9 189.4 L246.1 64 L163.9 165.8 L157.3 417.1 L150.1 448" /><path d="M361.9 189.4 L163.9 165.8" /></g>
    <g fill="#E8C87A"><circle cx="303.4" cy="363.4" r="5.5" /><circle cx="361.9" cy="189.4" r="6.2" /><circle cx="246.1" cy="64" r="6.3" /><circle cx="163.9" cy="165.8" r="4.5" /><circle cx="157.3" cy="417.1" r="5" /><circle cx="150.1" cy="448" r="4.9" /></g>
    <text x="256" y="484" fill="#8E96B4" font-size="20" text-anchor="middle" font-family="sans-serif">Libra · 6</text>
    <rect x="0.5" y="0.5" width="511" height="511" fill="none" stroke="#2B3566" />
  </g>
  <g transform="translate(1536 768)">
    <g fill="none" stroke="#F2EFE6" stroke-width="2" stroke-linecap="round" opacity="0.32"><path d="M445.9 167.4 L440.7 110.1 L422.9 64" /><path d="M440.7 110.1 L367.9 158.8 L339.2 172.6 L316.5 201.8 L266.7 301.4 L260.7 362.9 L251.2 433.6 L189.9 448 L102 444 L66.1 397 L83.9 379 L115 347.5" /></g>
    <g fill="#E8C87A"><circle cx="445.9" cy="167.4" r="6" /><circle cx="440.7" cy="110.1" r="6.8" /><circle cx="422.9" cy="64" r="6.4" /><circle cx="367.9" cy="158.8" r="5.9" /><circle cx="339.2" cy="172.6" r="8.5" /><circle cx="316.5" cy="201.8" r="6.1" /><circle cx="266.7" cy="301.4" r="6.8" /><circle cx="260.7" cy="362.9" r="5.8" /><circle cx="251.2" cy="433.6" r="4.9" /><circle cx="189.9" cy="448" r="5.4" /><circle cx="102" cy="444" r="7.4" /><circle cx="66.1" cy="397" r="5.8" /><circle cx="83.9" cy="379" r="6.7" /><circle cx="115" cy="347.5" r="7.7" /></g>
    <text x="256" y="484" fill="#8E96B4" font-size="20" text-anchor="middle" font-family="sans-serif">Escorpio · 14</text>
    <rect x="0.5" y="0.5" width="511" height="511" fill="none" stroke="#2B3566" />
  </g>
  <g transform="translate(0 1280)">
    <g fill="none" stroke="#F2EFE6" stroke-width="2" stroke-linecap="round" opacity="0.32"><path d="M387.4 344.3 L368.4 312.3 L377.6 250.9 L357.3 191.5 L398.6 132.8" /><path d="M198.2 448 L194.5 396.2 L256.5 251.6 L305.8 212.7 L357.3 191.5" /><path d="M103.2 413.1 L90.2 324.3 L101.5 203.4 L157.2 184.3 L190.5 179.2 L218.8 189.3 L277.8 203.3 L305.8 212.7 L377.6 250.9 L421.8 258.9 L368.4 312.3 L256.5 251.6 L243.9 221.8 L277.8 203.3 L250.4 142 L235.6 132.3 L212.7 104.4 L201 89.5 L200.8 64" /><path d="M250.4 142 L270.7 133.4 L281 155.5 L277.8 203.3" /></g>
    <g fill="#E8C87A"><circle cx="387.4" cy="344.3" r="5.7" /><circle cx="368.4" cy="312.3" r="7.5" /><circle cx="377.6" cy="250.9" r="6.2" /><circle cx="357.3" cy="191.5" r="6.1" /><circle cx="398.6" cy="132.8" r="4.6" /><circle cx="198.2" cy="448" r="4.5" /><circle cx="194.5" cy="396.2" r="4.5" /><circle cx="256.5" cy="251.6" r="6.4" /><circle cx="305.8" cy="212.7" r="5.6" /><circle cx="103.2" cy="413.1" r="4.2" /><circle cx="90.2" cy="324.3" r="3.9" /><circle cx="101.5" cy="203.4" r="3.4" /><circle cx="157.2" cy="184.3" r="3.6" /><circle cx="190.5" cy="179.2" r="3" /><circle cx="218.8" cy="189.3" r="3.2" /><circle cx="277.8" cy="203.3" r="7.1" /><circle cx="421.8" cy="258.9" r="5.8" /><circle cx="243.9" cy="221.8" r="5.4" /><circle cx="250.4" cy="142" r="4.7" /><circle cx="235.6" cy="132.3" r="6" /><circle cx="212.7" cy="104.4" r="3.2" /><circle cx="201" cy="89.5" r="4.5" /><circle cx="200.8" cy="64" r="3.7" /><circle cx="270.7" cy="133.4" r="5.1" /><circle cx="281" cy="155.5" r="3.2" /></g>
    <text x="256" y="484" fill="#8E96B4" font-size="20" text-anchor="middle" font-family="sans-serif">Sagitario · 25</text>
    <rect x="0.5" y="0.5" width="511" height="511" fill="none" stroke="#2B3566" />
  </g>
  <g transform="translate(512 1280)">
    <g fill="none" stroke="#F2EFE6" stroke-width="2" stroke-linecap="round" opacity="0.32"><path d="M448 124.5 L433.6 166 L399.8 221.3 L325.8 357.4 L301.2 387.5 L151.5 305.2 L64 190.5 L93.9 200.3 L170.5 203.4 L240.5 210.7 L448 124.5" /></g>
    <g fill="#E8C87A"><circle cx="448" cy="124.5" r="4" /><circle cx="433.6" cy="166" r="5.7" /><circle cx="399.8" cy="221.3" r="3.3" /><circle cx="325.8" cy="357.4" r="4.2" /><circle cx="301.2" cy="387.5" r="4.2" /><circle cx="151.5" cy="305.2" r="4.7" /><circle cx="64" cy="190.5" r="6" /><circle cx="93.9" cy="200.3" r="4.8" /><circle cx="170.5" cy="203.4" r="4" /><circle cx="240.5" cy="210.7" r="4.3" /></g>
    <text x="256" y="484" fill="#8E96B4" font-size="20" text-anchor="middle" font-family="sans-serif">Capricornio · 10</text>
    <rect x="0.5" y="0.5" width="511" height="511" fill="none" stroke="#2B3566" />
  </g>
  <g transform="translate(1024 1280)">
    <g fill="none" stroke="#F2EFE6" stroke-width="2" stroke-linecap="round" opacity="0.32"><path d="M448 252.4 L437 247.8 L351.2 217.3 L275.7 170.2 L240.7 179.8 L224.9 167.5 L210.5 168.4 L172.4 235.2 L116.6 249.6 L135.3 357" /><path d="M351.2 217.3 L274.3 291.6" /><path d="M275.7 170.2 L251.3 237.1" /><path d="M224.9 167.5 L232.7 155" /><path d="M105.5 347.4 L116.6 249.6 L64 326.9" /></g>
    <g fill="#E8C87A"><circle cx="448" cy="252.4" r="4.7" /><circle cx="437" cy="247.8" r="3.4" /><circle cx="351.2" cy="217.3" r="5.9" /><circle cx="275.7" cy="170.2" r="5.9" /><circle cx="240.7" cy="179.8" r="4.6" /><circle cx="224.9" cy="167.5" r="4.9" /><circle cx="210.5" cy="168.4" r="4.3" /><circle cx="172.4" cy="235.2" r="4.8" /><circle cx="116.6" cy="249.6" r="3.8" /><circle cx="135.3" cy="357" r="4.8" /><circle cx="274.3" cy="291.6" r="4" /><circle cx="251.3" cy="237.1" r="4.2" /><circle cx="232.7" cy="155" r="3.3" /><circle cx="105.5" cy="347.4" r="4.5" /><circle cx="64" cy="326.9" r="3.3" /></g>
    <text x="256" y="484" fill="#8E96B4" font-size="20" text-anchor="middle" font-family="sans-serif">Acuario · 15</text>
    <rect x="0.5" y="0.5" width="511" height="511" fill="none" stroke="#2B3566" />
  </g>
  <g transform="translate(1536 1280)">
    <g fill="none" stroke="#F2EFE6" stroke-width="2" stroke-linecap="round" opacity="0.32"><path d="M168.1 176.2 L172.6 126.9 L155.8 152.2 L168.1 176.2 L173 208 L129.9 258.9 L99.9 314.3 L64 371.6 L82.3 367.8 L108.4 347.2 L132.7 341.3 L168.1 328.5 L191.4 325.7 L222.1 328.4 L328.5 334.9 L370.3 346 L396.1 339.2 L412.5 348.1 L419.4 366.9 L398.3 385.1 L365.7 380.4 L356.4 365.1 L370.3 346" /><path d="M419.4 366.9 L448 362.1" /></g>
    <g fill="#E8C87A"><circle cx="168.1" cy="176.2" r="3.5" /><circle cx="172.6" cy="126.9" r="3.7" /><circle cx="155.8" cy="152.2" r="3.4" /><circle cx="173" cy="208" r="3.5" /><circle cx="129.9" cy="258.9" r="4.9" /><circle cx="99.9" cy="314.3" r="4" /><circle cx="64" cy="371.6" r="4.7" /><circle cx="82.3" cy="367.8" r="3.5" /><circle cx="108.4" cy="347.2" r="3.8" /><circle cx="132.7" cy="341.3" r="3.2" /><circle cx="168.1" cy="328.5" r="3" /><circle cx="191.4" cy="325.7" r="4" /><circle cx="222.1" cy="328.4" r="3.8" /><circle cx="328.5" cy="334.9" r="4.4" /><circle cx="370.3" cy="346" r="4.2" /><circle cx="396.1" cy="339.2" r="4" /><circle cx="412.5" cy="348.1" r="3" /><circle cx="419.4" cy="366.9" r="4.8" /><circle cx="398.3" cy="385.1" r="3.1" /><circle cx="365.7" cy="380.4" r="3.7" /><circle cx="356.4" cy="365.1" r="3.1" /><circle cx="448" cy="362.1" r="3.7" /></g>
    <text x="256" y="484" fill="#8E96B4" font-size="20" text-anchor="middle" font-family="sans-serif">Piscis · 22</text>
    <rect x="0.5" y="0.5" width="511" height="511" fill="none" stroke="#2B3566" />
  </g>
</svg>
